<svg width="33" height="32" fill="none" xmlns="http://www.w3.org/2000/svg"><g clip-path="url(#clip0_9002_1682)"><path d="M3.365 1.008h.44c.308 0 .615 0 .922.003.393.002.785.002 1.178 0l.91.001h.433c.203 0 .405.001.608.003l.179-.001c.516.009.892.178 1.285.509.414.493.59.959.538 1.607-.16.537-.416.935-.783 1.352l-.28.33-.14.163a20.2 20.2 0 00-.548.688c-.312.402-.638.79-.97 1.173-.267.308-.524.622-.776.942-.135.169-.135.169-.325.345-.284.344-.236.755-.236 1.181l-.005.278c-.003.251-.005.502-.006.754l-.003.472c-.004.552-.007 1.104-.007 1.656 0 .51-.006 1.022-.013 1.532-.006.441-.009.882-.009 1.323 0 .263-.001.525-.007.787-.023 1.272.068 2.173.882 3.183.185.237.342.492.502.747l.2.308c.275.424.547.85.82 1.276.362.567.726 1.135 1.093 1.7.209.322.416.646.623.97l.163.256a239.495 239.495 0 01.601.946c.156.232.156.232.396.36.178.032.344.038.525.038l.222.001h1.218l.77.001 1.333.002c.702 0 1.405.001 2.107.003l.72.001h.183a7005.566 7005.566 0 0010.323.014c.44 0 .879 0 1.318.003h.761c.275 0 .55 0 .824.002l.244-.002c.539.006.539.006.784.181.106.168.139.256.136.452l.002.148c-.057.216-.165.304-.336.445-.19.034-.19.034-.402.029l-.23-.003-.239-.008c-.08 0-.16-.002-.242-.004a44.881 44.881 0 01-.591-.014l.109.26c.222.594.21 1.335-.007 1.93-.305.636-.769 1.04-1.419 1.301-.64.176-1.409.151-2.01-.137a2.517 2.517 0 01-1.194-1.576 6.865 6.865 0 01-.023-.583l-.004-.15c0-.281.037-.505.14-.767l.062-.159.047-.12-.24.002c-1.926.008-3.853.014-5.78.018l-2.795.009c-.812.003-1.624.006-2.437.007-.43 0-.86.001-1.29.004-.404.003-.81.003-1.214.003-.149 0-.297 0-.445.002-1.492.014-1.492.014-2.028-.415a3.559 3.559 0 01-.445-.593l-.132-.2a56.799 56.799 0 01-.438-.684l-.238-.375-.235-.37c-.182-.285-.366-.57-.55-.853-.395-.608-.785-1.219-1.174-1.83l-.145-.227-.128-.2c-.194-.3-.393-.596-.591-.893-.025 1.003-.05 2.006-.074 3.039l.889.222c.914.428 1.577 1.167 1.95 2.094.28.898.259 2.028-.171 2.871-.5.854-1.17 1.491-2.103 1.844-.966.253-2.052.17-2.937-.287-.828-.507-1.397-1.254-1.712-2.164-.222-.947-.146-2.01.347-2.854.53-.798 1.179-1.405 2.131-1.628l.24-.057.18-.041c.011-1.963.017-3.926.017-5.889 0-.912.002-1.823.008-2.734.005-.795.006-1.59.004-2.385 0-.42 0-.84.005-1.261.004-.397.004-.793 0-1.19 0-.145 0-.29.004-.434.013-.761-.018-1.305-.544-1.889a10.68 10.68 0 00-.35-.344 4.527 4.527 0 01-.418-.488c-.312-.395-.63-.783-.95-1.172l-.499-.611a37.045 37.045 0 00-.342-.41C.461 3.501.461 3.501.52 2.61c.114-.508.308-.96.723-1.289.657-.389 1.383-.32 2.122-.314zm-1.502 1.51c-.118.237-.078.358-.009.612.116.16.228.3.361.445l.225.255.116.131c.18.21.348.428.516.646A28.744 28.744 0 004.08 5.833c.167.193.336.377.517.558V2.24l-1.088-.01-.342-.004h-.27c-.092-.002-.183-.002-.277-.003-.312.021-.526.08-.756.294zm3.919-.277v4.15c.269-.27.52-.539.764-.83l.108-.128c.258-.307.51-.62.76-.934.162-.204.328-.404.494-.605l.32-.394.126-.15c.17-.214.244-.333.244-.61-.075-.206-.119-.3-.297-.425-.268-.092-.53-.083-.811-.082h-.272l-.343.003-1.093.005zM3.41 25.57a5.727 5.727 0 00-.222.31l-.097.145c-.283.514-.29 1.138-.2 1.708a2.5 2.5 0 001.2 1.502 2.41 2.41 0 001.913.128c.63-.292 1.065-.673 1.362-1.301a2.735 2.735 0 00.004-1.84c-.293-.624-.734-1.033-1.366-1.305a2.482 2.482 0 00-2.594.653zm23.91 2.135c-.164.34-.18.621-.121.991.173.359.382.569.741.741.37.06.652.043.991-.12.266-.24.461-.433.52-.799.018-.42-.034-.685-.325-1.008-.323-.291-.587-.343-1.008-.324-.366.058-.558.253-.799.519z" fill="#031343"/><path d="M13.087 7.556h.218a746.793 746.793 0 001.242-.002l1.41-.003h1.176c.872-.002 1.744-.003 2.616-.002h.318c.848 0 1.697-.002 2.546-.004l2.616-.003c.49 0 .979 0 1.468-.002h1.38l.507-.001h.692l.202-.002c.516.006.905.139 1.296.481l.12.146.125.146c.254.368.277.709.275 1.146l.001.189.001.625.002.448.001 1.219.002 1.017v2.4c0 .825.002 1.65.005 2.475.002.708.002 1.417.002 2.125 0 .423 0 .846.002 1.27.002.398.002.796 0 1.194a49.765 49.765 0 010 1.036c.002.057.003.115.003.174a1.8 1.8 0 01-.48 1.233l-.147.121-.145.125c-.402.276-.765.276-1.236.275h-.218c-.242.002-.483.002-.724.002l-.519.001-1.409.002-1.176.001-2.617.002h-.318c-.848 0-1.697 0-2.545.003l-2.616.003c-.49 0-.979 0-1.468.002h-1.381l-.507.001c-.23.002-.461 0-.692 0l-.202.002c-.515-.006-.904-.139-1.295-.481l-.121-.146-.125-.146c-.253-.368-.277-.709-.275-1.146v-.189c-.002-.208-.002-.416-.002-.625l-.001-.448-.002-1.22v-1.017c-.002-.8-.003-1.6-.002-2.4 0-.825-.002-1.65-.004-2.475a752.96 752.96 0 01-.003-2.125c0-.423 0-.846-.002-1.27V10.52l-.001-.437v-.599l-.002-.174a1.8 1.8 0 01.481-1.233l.146-.121.146-.125c.401-.276.764-.276 1.236-.275zm-.636 1.428c-.196.31-.168.656-.165 1.011v.196l.002.626v.388l.005 1.434.01 3.237h8.3V8.762c-1.36-.007-1.36-.007-2.718-.011-.554-.001-1.109-.003-1.663-.006a327.366 327.366 0 00-1.852-.007 99.436 99.436 0 00-.716-.001l-.214-.003c-.38.002-.669.02-.989.25zm9.338-.222v7.114h8.3l.014-3.233.006-1.02.001-.604.002-.403c.002-.204.002-.408.002-.612l.002-.18c-.002-.356-.04-.613-.25-.914-.328-.218-.74-.168-1.12-.165h-.228l-.744.002h-.517l-1.36.005-1.63.003c-.827.001-1.652.004-2.478.007zm-9.486 8.3l-.014 3.233-.006 1.02-.001.604c0 .135-.002.27-.003.403-.001.204-.002.408-.001.612l-.003.18c.002.356.04.613.25.914.329.218.74.168 1.12.165h.228l.745-.002h.517l1.359-.005 1.631-.003c.826-.001 1.652-.004 2.478-.007v-7.114h-8.3zm9.486 0v7.114c1.359.007 1.359.007 2.718.011l1.662.006a315.25 315.25 0 001.852.007l.717.002.213.002c.381-.002.67-.02.99-.25.196-.31.168-.656.165-1.011v-.196c0-.209-.002-.418-.003-.626v-.388l-.005-1.434-.01-3.237h-8.3z" fill="#031343"/><path d="M28.31 18.21l.148-.002c.216.058.303.165.445.336.037.191.037.191.038.41l.003.248-.002.268v.853c-.002.295 0 .59.001.884v.828l-.002.249v.219c-.049.244-.143.333-.335.487-.148.04-.148.04-.296.037l-.148.003c-.217-.058-.304-.165-.445-.336-.038-.191-.038-.191-.038-.41l-.003-.249.002-.268-.001-.275.001-.577c.002-.295 0-.59-.002-.884l.002-.56-.002-.268.003-.25v-.218c.067-.34.285-.53.63-.525zm-2.371 0l.148-.002c.216.058.303.165.445.336.037.191.037.191.038.41l.003.248-.002.268v.853c-.002.295 0 .59.001.884l-.001.56.002.268-.003.249v.219c-.049.244-.143.333-.335.487-.148.04-.148.04-.296.037l-.148.003c-.217-.058-.304-.165-.445-.336-.038-.191-.038-.191-.038-.41l-.003-.249c0-.088 0-.177.002-.268l-.001-.275.001-.577c.002-.295 0-.59-.002-.884 0-.187 0-.374.002-.56l-.002-.268.003-.25v-.218c.067-.34.285-.53.63-.525zm-2.372 0l.148-.002c.217.058.304.165.445.336.038.191.038.191.038.41l.003.248-.002.268.001.276-.001.577c-.002.295 0 .59.002.884l-.002.56.002.268-.003.249v.219c-.049.244-.143.333-.334.487-.149.04-.149.04-.297.037l-.148.003c-.216-.058-.303-.165-.445-.336-.037-.191-.037-.191-.038-.41l-.003-.249.002-.268v-.852c.002-.295 0-.59-.001-.884v-.828l.002-.25v-.218c.067-.34.285-.53.631-.525zm-4.742 0l.148-.002c.216.058.303.165.444.336.038.191.038.191.039.41l.003.248-.002.268v.276l-.001.577c-.002.295 0 .59.002.884l-.001.56c0 .089 0 .177.002.268l-.003.249-.001.219c-.048.244-.142.333-.334.487-.148.04-.148.04-.296.037l-.149.003c-.216-.058-.303-.165-.444-.336-.038-.191-.038-.191-.039-.41l-.003-.249.002-.268v-.275l.001-.577c.002-.295 0-.59-.002-.884l.001-.56-.002-.268.003-.25.001-.218c.067-.34.285-.53.63-.525zm-2.372 0l.148-.002c.216.058.303.165.445.336.037.191.037.191.038.41l.003.248-.002.268.001.276c0 .192 0 .385-.002.577a261.709 261.709 0 010 1.444c.002.089.002.177.003.268l-.003.249v.219c-.049.244-.143.333-.335.487-.148.04-.148.04-.296.037l-.148.003c-.217-.058-.304-.165-.445-.336-.038-.191-.038-.191-.038-.41l-.003-.249.002-.268-.001-.275.001-.577c.002-.295 0-.59-.002-.884l.002-.56-.002-.268.003-.25v-.218c.067-.34.285-.53.63-.525zm-2.372 0l.149-.002c.216.058.303.165.444.336.038.191.038.191.039.41l.002.248-.001.268v.276l-.001.577c-.002.295 0 .59.002.884l-.001.56.001.268-.002.249-.001.219c-.048.244-.143.333-.334.487-.149.04-.149.04-.297.037l-.148.003c-.216-.058-.303-.165-.444-.336-.038-.191-.038-.191-.039-.41l-.003-.249.002-.268v-.852c.002-.295 0-.59-.001-.884l.001-.56-.002-.268.003-.25v-.218c.068-.34.286-.53.631-.525zm14.229-8.3l.148-.002c.216.058.303.165.445.336.037.191.037.191.038.41l.003.249-.002.267v.853c-.002.295 0 .59.001.884v.828l-.002.25v.218c-.049.245-.143.333-.335.488-.148.039-.148.039-.296.036l-.148.003c-.217-.058-.304-.165-.445-.336-.038-.191-.038-.191-.038-.41l-.003-.249.002-.267-.001-.276.001-.577c.002-.295 0-.59-.002-.884l.002-.56-.002-.268.003-.25v-.218c.067-.34.285-.53.63-.524zm-2.371 0l.148-.002c.216.058.303.165.445.336.037.191.037.191.038.41l.003.249-.002.267v.853c-.002.295 0 .59.001.884l-.001.56.002.268-.003.25v.218c-.049.245-.143.333-.335.488-.148.039-.148.039-.296.036l-.148.003c-.217-.058-.304-.165-.445-.336-.038-.191-.038-.191-.038-.41l-.003-.249c0-.088 0-.176.002-.267l-.001-.276.001-.577c.002-.295 0-.59-.002-.884 0-.187 0-.374.002-.56l-.002-.268.003-.25v-.218c.067-.34.285-.53.63-.524zm-2.372 0l.148-.002c.217.058.304.165.445.336.038.191.038.191.038.41l.003.249-.002.267.001.276-.001.577c-.002.295 0 .59.002.884l-.002.56.002.268-.003.25v.218c-.049.245-.143.333-.334.488-.149.039-.149.039-.297.036l-.148.003c-.216-.058-.303-.165-.445-.336-.037-.191-.037-.191-.038-.41l-.003-.249.002-.267v-.853c.002-.295 0-.59-.001-.884v-.828l.002-.25v-.218c.067-.34.285-.53.631-.524zm-4.742 0l.148-.002c.216.058.303.165.444.336.038.191.038.191.039.41l.003.249-.002.267v.276l-.001.577c-.002.295 0 .59.002.884l-.001.56c0 .089 0 .177.002.268l-.003.25-.001.218c-.048.245-.142.333-.334.488-.148.039-.148.039-.296.036l-.149.003c-.216-.058-.303-.165-.444-.336-.038-.191-.038-.191-.039-.41l-.003-.249.002-.267v-.276l.001-.577c.002-.295 0-.59-.002-.884l.001-.56-.002-.268.003-.25.001-.218c.067-.34.285-.53.63-.524zm-2.372 0l.148-.002c.216.058.303.165.445.336.037.191.037.191.038.41l.003.249-.002.267.001.276c0 .193 0 .385-.002.577a261.709 261.709 0 010 1.445c.002.088.002.176.003.267l-.003.25v.218c-.049.245-.143.333-.335.488-.148.039-.148.039-.296.036l-.148.003c-.217-.058-.304-.165-.445-.336-.038-.191-.038-.191-.038-.41l-.003-.249.002-.267-.001-.276.001-.577c.002-.295 0-.59-.002-.884l.002-.56-.002-.268.003-.25v-.218c.067-.34.285-.53.63-.524zm-2.372 0l.149-.002c.216.058.303.165.444.336.038.191.038.191.039.41l.002.249-.001.267v.276l-.001.577c-.002.295 0 .59.002.884l-.001.56.001.268-.002.25-.001.218c-.048.245-.143.333-.334.488-.149.039-.149.039-.297.036l-.148.003c-.216-.058-.303-.165-.444-.336-.038-.191-.038-.191-.039-.41l-.003-.249.002-.267v-.853c.002-.295 0-.59-.001-.884l.001-.56-.002-.268.003-.25v-.218c.068-.34.286-.53.631-.524z" fill="#031343"/><path d="M5.263 28.475c.69 0 1.258-.525 1.327-1.198l.007-.136c0-.69-.525-1.259-1.198-1.327l-.136-.007m0 2.668v-2.668m0 2.668l-.137-.007a1.335 1.335 0 01-1.19-1.19l-.007-.137c0-.737.597-1.334 1.334-1.334m0 2.668v-2.668" stroke="#031343" stroke-width="12"/></g><defs><clipPath id="clip0_9002_1682"><path fill="#fff" transform="translate(.5)" d="M0 0h32v32H0z"/></clipPath></defs></svg>